<?xml version="1.0" encoding="utf-8"?>
<!-- Generator: Adobe Illustrator 22.0.1, SVG Export Plug-In . SVG Version: 6.00 Build 0)  -->
<svg version="1.1" id="圖層_1" xmlns="http://www.w3.org/2000/svg" xmlns:xlink="http://www.w3.org/1999/xlink" x="0px" y="0px"
	 viewBox="0 0 245 240" style="enable-background:new 0 0 245 240;" xml:space="preserve">
<path d="M217.3,46.8C217.3,46.8,217.2,46.8,217.3,46.8l-0.2,0L217.3,46.8C217.2,46.9,217.3,46.9,217.3,46.8z M241.3,143.2
	C241.3,143.2,241.3,143.2,241.3,143.2c0.1,0,0.1-0.1,0.1-0.1l-0.1,0V143.2z M244.6,118.7c0.4-1.7-0.2-3.2-0.6-4.8
	c-0.1-0.7-0.2-1.4-0.7-2c0.2-1.1,0.2-2.1-0.3-3.1c0.2-0.3,0.4-0.7,0-1l0-0.3c-0.1-0.4-0.2-0.8-0.3-1.2l-0.2-0.8c0-0.1,0-0.2,0-0.2
	c-0.1-0.1-0.1-0.2-0.2-0.3c0-0.1,0-0.2-0.1-0.2c0-0.3,0.1-0.8-0.6-0.6c-0.1,0-0.1,0-0.2,0c-0.1-0.1-0.1-0.2-0.2-0.2
	c0.2-0.2,0.3-0.4,0.2-0.7l0-1c-0.1-0.9,0.2-1.9-0.5-2.7c-0.1-1-0.7-2-0.6-3c0.2-0.5-0.3-0.7-0.5-1c-0.1-0.9,0.3-2-0.8-2.6
	c0.2-0.4,0.4-0.8,0.1-1.3c-0.5-0.8-0.7-1.7-0.6-2.7c0-0.4-0.1-0.8-0.5-1.1c0.2-0.7-0.2-1.1-0.6-1.6c-0.3-0.4-0.6-0.8-0.5-1.3
	c0.4-1.2-0.3-2-0.7-2.9c0-0.5,0-0.9-0.3-1.3c0.1-0.8-0.2-1.6-0.5-2.3c-0.2-0.2-0.3-0.4-0.5-0.5c0.1-0.5-0.1-0.9-0.3-1.3
	c-0.2-0.4-0.5-0.7-0.7-1.1l-0.3-0.2c-0.1-0.2-0.3-0.2-0.5-0.3c0-0.8-0.1-1.6-0.6-2.3c-0.2-0.4-0.3-0.8-0.8-1.1c0-0.1,0-0.2-0.1-0.2
	c-0.1-0.4-0.2-0.8-0.3-1.2c-0.4-1.2-0.6-2.5-1.9-3.1c-0.2-0.1-0.3-0.2-0.5-0.4c0-0.2,0-0.5-0.1-0.7c0.2,0,0.5,0.1,0.5-0.3
	c0.1-0.5-0.4-0.4-0.6-0.6c-0.7-0.9-0.9-1.9-1.4-2.9c-0.3-0.6-0.6-1.3-1.3-1.6c-0.2-0.1-0.3-0.2-0.5-0.3c0.2-0.2,0.3-0.4,0.2-0.6
	c-0.9-0.8-1.2-2-2.2-2.7c0-0.1-0.1-0.1-0.1-0.2c0-0.3,0.3-0.5,0-0.8c-0.1-0.6-0.4-1-1.1-1c-0.1-0.1-0.2-0.2-0.2-0.2
	c0.4-0.6,0.4-1.2-0.5-1.2c0.1-0.5-0.3-0.6-0.5-0.9c-0.1-1.7-1.4-2.5-2.6-3.4c-0.4-0.9-0.9-1.7-1.8-2.1c0-0.1,0-0.1-0.1-0.2
	c0.1-1.3-0.7-2.1-1.5-2.8c-0.4-0.9-0.9-1.7-1.8-2.2c-0.9-0.8-1.7-1.6-2.4-2.5c-1-0.5-1.3-1.5-1.9-2.3c0-0.3-0.3-0.2-0.5-0.3h0
	c-0.4-0.6-0.9-1.1-1.1-1.9c-0.1-0.6-0.6-0.5-1-0.2c-0.2-0.2-0.3-0.3-0.5-0.5c0-1-0.5-1.7-1.4-2.1c-0.3-0.9-1-1.3-1.8-1.5
	c-0.2-0.2-0.5-0.3-0.7-0.5c0.3-1.1-0.2-1.7-1.3-1.9c-0.5-0.1-0.9-0.3-1.3-0.4c-1-0.4-1.9-0.9-2.9-1.3c-0.2-0.1-0.5-0.1-0.5,0.2h-0.1
	c0-0.1-0.1-0.1-0.1-0.1l-0.2-0.4v0h0c-0.4-1.4-1.5-2-2.8-2.5c-0.2-0.3-0.3-0.7-0.8-0.9c-0.6-1.1-1.8-1.6-2.7-2.4
	c-0.4-0.3-0.8-0.7-1.2-1c-1.3-0.8-2.1-2.1-3.6-2.6c-0.9-1.1-1.9-2-3.4-2c-0.2-0.2-0.4-0.4-0.5-0.6c0-0.3-0.3-0.2-0.5-0.2
	c-0.7-0.3-1.2-0.9-1.8-1.4c-0.2-0.4-0.5-0.4-0.7,0c-0.6,0-0.8-0.9-1.4-0.8c-0.8-1.1-2.1-1.2-3.2-1.6c-0.5-0.2-0.9-0.3-1.4-0.5
	c-0.2,0-0.4,0-0.5-0.2l-0.1-0.2l-0.2,0.2c-0.3-0.1-0.6-0.2-0.9-0.4c-1.1-0.5-2-1.2-3.2-1.2c-0.9-0.7-2-0.7-3.1-0.6
	c-0.6-0.6-1.4-0.7-2.1-1c-0.2,0-0.5,0-0.8,0l-0.2-0.2c-0.6-0.9-1.4-1.3-2.4-1.5c-0.9-0.2-1.6-0.8-2.6-0.8c-0.7-0.4-1.4,0.2-2.1,0
	c-0.8,0-1.5-0.8-2.3-0.5c-0.3,0-0.5,0-0.8,0c-1.5-0.9-3.1-0.8-4.7-0.6c-1.5-0.3-2.9-0.5-4.4-0.8c-0.3,0-0.5,0-0.8,0
	c-2.1-1.1-4.5-1-6.8-1.3c-0.6-0.9-1.5-0.4-2.3-0.5c-1.6-0.5-3.3-0.2-5-0.2c-1,0-1.9-0.1-2.9,0c-1,0.1-2.1-0.3-3.1,0.2
	c-0.7,0-1.4,0-2.1,0.2c-0.6,0.3-1.2,0.5-1.8,0.6h-0.4c-0.6,0-1.2-0.2-1.8-0.8c-0.2-0.2-0.7-0.1-0.7,0.4c-2.3-0.1-4.6,0.3-6.9,0.5
	c-0.7,0.1-1.5,0-1.9,0.8l-0.3,0c-1.1-0.4-2.1,0.4-3.1,0.1c-0.5-0.3-1.1-0.2-1.6-0.1c-1.5,0.3-3,1-4.6,1c-1.4,0.2-2.8,0.1-4.2,0.7
	c-0.9,0.8-2.2,0.1-3.1,0.8c-0.5,0-0.9,0.3-1.4,0.2c-1.5-0.2-1.7,0-1.8,1.5c-0.2,0-0.3,0-0.5,0c-0.2-0.7-0.8-0.6-1.1-0.4
	C81.8,7,80,7.8,78,8.2c-0.1,0-0.1,0.2-0.2,0.3c-0.8,0.2-1.7,0.3-2.1,1.3l-0.5,0c-1.3-0.5-2.2,0.5-3.1,1.1c-0.4,0.2-0.8,0.3-1.1,0.7
	c-0.4,0.2-0.9,0.5-1.3,0.7c-0.2,0-0.4-0.1-0.5,0.2c-1-0.2-1.5,0.8-2.3,0.9c-0.8,0.2-1.7,0.5-2.4,1c-0.3,0.1-0.7,0-0.8,0.5
	c-0.1,0-0.1,0.1-0.2,0.1c-0.7,0-0.7,0.7-1.1,1l-0.2,0.1c-0.8-0.1-1.4,0.7-2.1,0.7c-1.4,0-2.1,0.6-2.2,1.9c-0.2,0.7-1.2,0.5-1.3,1.2
	c-0.2,0.1-0.5,0.2-0.8,0.3c-0.5-0.1-1,0.1-1.1,0.6c-0.2,0.7-0.7,0.9-1.2,1.2c-0.8,0.7-1.9,1.1-2.9,1.5c-0.5,0-0.7,0.5-1.2,0.6
	c-1.6,0.2-1.9,0.7-1.7,2.2c-0.1,0-0.1,0-0.2,0c-1.6-0.3-2.9,0.6-2.9,2.1c-0.3,0.3-0.5,0.5-0.8,0.8c-0.6,0-0.5,0.5-0.8,0.8
	c-0.3,0.1-0.2,0.4-0.3,0.6c-0.2,0-0.5-0.1-0.5,0.3c0,0.1,0,0.2,0,0.2c-0.1,0.1-0.2,0.2-0.3,0.2c-0.1,0-0.1,0-0.2,0
	c-0.7-0.2-1.4,0.1-2.2,0.1c0.1,0.7-0.1,1.2-0.7,1.6c-0.4,0.3-0.5,0.8-0.3,1.4c-0.2,0.2-0.6,0.1-0.7,0.2c-0.4,0.5-1.5,0.5-1.1,1.5
	c-0.4,0.4-0.7,0.8-1.1,1.3c-0.2,0.1-0.4,0.3-0.6,0.4c-1.1,0.1-1.3,1.2-1.9,1.8c-1.1-0.7-1.5,0.4-2.1,0.9c-0.6,0.6-1.1,1.4-0.1,2.2
	c-0.2,0.2-0.4,0.5-0.6,0.7c-0.8,0.7-1.7,1.4-2.5,2.1c-0.3,0.3-1.1,0.3-0.6,1c0.2,0.5-0.2,0.9-0.2,1.3c-0.2,0-0.3,0-0.5,0
	c-0.2,0-0.3,0-0.4,0.2c-0.3,0.2-0.2,0.5-0.2,0.8c0,0.1,0,0.2,0,0.2c-0.1,0-0.2,0-0.2,0.1c-0.3,0-0.2,0.3-0.3,0.5l-0.5,0.5
	c-0.2,0.5-0.6,0.7-0.9,1c-0.3,0.3-1.1,0.2-1,0.9c-1.5,0.6-1.4,2.4-2.5,3.4c0,0,0.1,0.2,0.1,0.3c-0.9,0-1.5,1-2.4,0.8
	c0,0.6-0.1,1.1-0.1,1.6c0.1,0.8-0.5,1.5-0.9,1.8c-0.7,0.6-0.7,1.2-0.7,2c-0.8,0.7-1.9,1.2-1.8,2.5c0,0.3,0,0.6-0.3,0.7
	c-1,0.3-0.6,0.9-0.5,1.5l-0.1,0.5l-0.4,0.2c-0.5-0.5-1,0.1-1,0.3c0.2,1.1-0.6,1.6-1.1,2.3c-0.6,0.8-0.3,1.9-1,2.6
	c-1,1-0.9,2.5-1.7,3.5c-0.2,0.3-0.2,0.8,0.2,1.2c-0.2,0.6-0.4,1.1-0.4,1.7c-1.1,0.4-1.6,1.2-1.5,2.4c-0.4,0.6-0.8,1.3-1.2,2.1
	c0.8,0.4,0.7,1.1,0.7,1.8c-0.3,0.3-0.1,0.7-0.3,1c-1.2,0-1.7,0.8-1.6,2.6c0.2,0,0.4-0.1,0.6-0.1c0,0.2,0.1,0.3,0.1,0.4
	c-0.4,0-0.6,0.3-0.6,0.5c0,1.4-0.9,2.6-0.7,4c-1,1.5-0.5,3.4-1,5c-0.3,0.8-0.2,1.7-0.2,2.6c0,0.1,0,0.2,0,0.2
	c-0.3,0.1-0.3,0.3-0.2,0.5c-0.1,0.7,0,1.5-0.5,2.2c-0.3,0.4-0.3,1.2,0.2,1.7c0,0.4-0.4,0.6-0.3,1c0,0.1,0,0.1,0,0.2
	c-0.1,0-0.2,0-0.2,0c0-0.1,0-0.1-0.1-0.2c0-0.2,0.2-0.3-0.1-0.5c0,0-0.1,0-0.1,0c-0.2,0.1,0,0.3,0,0.4c0,0.2,0,0.3,0,0.5l0,0.3
	c-1.1,1.2-0.4,2.6-0.6,3.9c0,0.2-0.1,0.4-0.1,0.7c-0.2,1.1-1,2.2-0.4,3.5l0,0.8c-0.1,0-0.2,0-0.2,0.1c-0.5,0.3-0.2,0.8-0.2,1.2
	c-0.1,0.5-0.1,0.9,0.2,1.3c-0.2,0.4-0.5,0.8-0.5,1.3c0.1,0.7,0.2,1.4,0.3,2.1l-0.1,0.8c0.1,0.2,0.2,0.3,0.3,0.5
	c0,0.1-0.1,0.1-0.1,0.2c-0.5,0.3,0,0.5,0.1,0.8l-0.1,0.3c-0.6,0.5-0.2,0.7,0.3,0.8l0,0c-0.4,0.7,0.3,1.3,0.1,2l-0.1,1.3
	c-0.4,0.6,0,1.2,0.1,1.8c0.1,0.9-0.4,2,0.3,2.9c0.2,0.8,0.7,1.5,0.6,2.3c-0.4,1.3,0,2.5,0.7,3.6v0l0,0c-0.2,0.7,0.6,1.3,0.3,2
	c0.2,0.5,0.2,1.1,0.3,1.6c0.2,0.8-0.2,1.8,0.7,2.4c0,0.6,0.3,0.9,0.8,1.2c-0.3,0.4,0.1,0.9,0,1.3C4.1,150,4.7,151,5,152.1
	c0.1,0.4-0.2,1,0.5,1.1c0.3,0.4,0.4,1,0.2,1.4c-0.2,0.5,0.1,0.6,0.3,0.9c0,0.5,0,0.9,0.3,1.3c0.4,0.2,0,0.8,0.5,1l0.5,0.3
	c0,0.4,0,0.9,0.1,1.3c-0.2,1.3,0.6,2.4,1.2,3.4c0.3,0.5,0.1,1.4,0.9,1.6c0,0.2,0,0.3,0,0.5c0,1.6,0.7,2.9,1.5,4.2
	c-0.7,0.7,0.3,1.1,0.5,1.6c0.4,1.1,0.7,2.3,1.4,3.3c0.6,1.5,1,3,2.3,4.1c0,0.4-0.2,0.9,0.5,0.8c0,0.1,0,0.2,0,0.3
	c0,0.5,0.1,1.1,0.5,1.4c0.9,0.9,1.3,2.1,2,3c0.1,0.2,0.1,0.3,0.3,0.2c0.1,0.1,0.2,0.3,0.2,0.4c-0.4,1.4,0.9,1.4,1.6,2l-0.1,0.1
	l0,0.1v0.3c0,0.9,0.6,1.3,1.3,1.6c0.1,0.2,0.3,0.4,0.5,0.5l0.1,0.5c-0.1,0.5-0.2,0.9,0.2,1.3c0.1,0.2,0.2,0.5,0.4,0.7
	c0.2-0.1,0.2-0.2,0.2-0.4l0.4,0c0.1,0.9,0.2,1.8,1.3,2.1l0.3,0.2c0.3,0,0.7,0.2,0.8,0.5c-0.1,0-0.2,0-0.2,0.1
	c-0.5,0.2-0.7,0.5-0.1,0.8c0.4,0.3,0.8,0.6,1.1,0.9l0.5,0.2c0.3,0.2,0.7,0.4,1,0.5v0.3c-0.2,0.1-0.3,0.2,0,0.3
	c0.5,0.6,1.4,0.7,1.6,1.6l0.2,0.3c-0.1,0.6,0.4,0.9,0.8,1.2c0,1.3,0.8,0,1.1,0.3c-0.2,0.7,0.5,0.9,0.7,1.3c0.4,1,1,1.8,2.1,2
	c0.4,0.5,0.8,1.1,1.5,1.2h0v0.1c-0.2,0-0.3,0.1-0.2,0.3c0.3,0.5,0.6,0.9,1.3,0.8c0.2,0.1,0.3,0.2,0.5,0.2c0.5,0,0.4,0.9,1,0.6
	c0,0.1,0.1,0.2,0.1,0.2c0,1.1,1,1.2,1.7,1.6c0.2,0.1,0.4,0.2,0.6,0.4c0,0.3,0.3,0.3,0.5,0.4c0.2,0.3,0.3,0.6,0.8,0.5
	c-0.1,0.2,0,0.3,0.1,0.3c0.6,0.9,1.7,1.1,2.2,2c0.1,0.1,0.1,0.2,0.2,0.2c0.3,0.3-0.2,0.8,0.4,1c0.2,0.4,0.5,0.3,0.8,0.2
	c0.1,0,0.1,0.1,0.2,0.1c0.3,0.5,0.9,0.7,1.3,1c0,0.6,0.2,0.9,0.8,0.8c0,0.1,0,0.1,0,0.2c-0.5,0.5-0.3,0.7,0.3,0.8
	c0.2,0.2,0.4,0.7,0.8,0.4c-0.1,0.2,0.1,0.3,0.2,0.4c0,0.1,0,0.2,0,0.2c0.1,0.4,0.4,0.2,0.7,0.2c0.1,0,0.2,0.1,0.2,0.1
	c0.1,0.4,0.4,0.5,0.8,0.5c0.4,0.2,0.7,0.3,1.1,0.5l0.1,0l0.1,0H53c0.1,0,0.2,0,0.2,0.1c0,0.1,0,0.1,0,0.2v0.1h0
	c-0.3,0.2-0.4,0.3,0,0.6l0.3,0.5c0.1,0.5,0.5,0.2,0.7,0.3h0.8c0.1,0,0.1,0,0.2,0.1c-0.1,0.6,0.3,0.8,0.8,0.8c0,0.6,0.5,1.1,0.7,1.6
	c0.2,0.3,0.6,1.1,1.3,0.8c0,0.5,0,1,0.6,1.3c-0.2,0-0.3,0.1-0.2,0.2c0,0.3,0.2,0.2,0.4,0.3c-0.3,0.4-0.2,0.6,0,1
	c0.3,0.6,1.2,0.5,1.4,1.1c0,0.8,0.6,0.9,1.2,1c0,0.1,0,0.2,0,0.2c-0.2,0.9,0.6,0.4,0.9,0.6c0.3,0.7,0.4,1.7,1.6,1.5
	c0.4,0,0.8,0.3,1.2,0.4c1,0.2,2.1,0.6,3-0.3c0.3,0,0.5-0.1,0.5-0.5l0.1,0h0.1c0.2,0.2,0.3,0.4,0.5,0.6c0,0.9,0.7,0.9,1.3,1
	c0.3,0.5,0.7,0.7,1.3,0.6c0.9-0.2,1.9-0.2,2.8-0.6c0.4,0.3,0.8,0.6,1.3,0.5c0.1,0.2,0.1,0.4,0.3,0.5c0.2,0,0.5,0,0.7,0.1
	c0.2,0.3,0.5,0.3,0.8,0.2c0.6,0.3,1.2,0.5,1.8,0.8l0.3,0c0.3,0.2,0.6,0.5,1.1,0.5c0.1,0,0.2,0.1,0.2,0.1c0,0.2,0,0.4,0.3,0.4
	c0.4,0.1,0.8,0.5,1.3,0.3c0.2,0,0.3-0.1,0.3-0.2c0.1,0,0.1,0,0.2,0.1c0,0.2,0,0.4,0.3,0.5c0.1,0,0.2,0.1,0.3,0.1
	c0.5,0.2,1,0.4,1.5,0.3l0.2,0.3c0.1,0.3,0.3,0.2,0.5,0.2c0.3,0,0.5,0,0.8,0c0.4,0.1,0.8,0.5,1.3,0.3c0.3,0.2,0.2,0.7,0.6,0.9
	c0.4-0.1,0.8-0.3,1.2-0.4l0.3,0.2c0,0.1,0,0.2,0.1,0.2c0.5,0.5,1.1,0.2,1.7,0.2c0.3,0,0.6,0,0.9,0c0.2,0,0.3,0,0.5,0
	c0.2,0,0.3,0,0.5,0.1c0.4,0.1,0.8,0.1,1.1,0.5c0.3,0.3,0.6,0.4,0.9,0c0-0.1,0.1-0.2,0.1-0.2c0.3,0.1,0.6,0.2,0.9,0.3
	c0.4,0.4,0.8,0.5,1.4,0.6c2.1,0.1,4.2,0.2,6.3,0.3c0.2,0,0.3-0.1,0.5-0.1c0.9-0.2,1.7,0.7,2.6,0.1c1.6,0.7,3.2,1,5,0.5
	c0.7,0,1.4,0,2,0c0.5,0.4,1.1,0.3,1.6,0.2c0.7-0.2,1.4-0.3,2.1,0c1.3,0,2.6,0.2,3.9-0.2c1.5,0.4,2.9,0.2,4.4,0
	c1.3,0.1,2.6,0,3.9-0.1c0.7-0.1,1.3-0.2,1.9-0.7c1.2,0.9,2.3,0.8,3.4-0.1c1.1-0.1,2.2,0.1,3.3-0.3l0.5-0.1h0.3c0.3,0,0.7,0,1,0
	c0.2,0,0.4,0,0.5,0c0.8-0.5,2.1,0,2.7-1c0.3,0,0.7,0.2,1-0.2c0.3-0.1,0.6-0.3,0.9-0.4c1.9,0.2,3.5-0.8,5.3-1.2
	c0.8-0.2,1.8-0.1,2.5-0.9c1.2-0.2,2.3-0.6,3.4-1.3c1.5,0.2,2.2-1.2,3.4-1.6l0.3,0c2.3-0.2,4.3-1.2,6.5-1.8c0.2-0.1,0.4-0.3,0.6-0.5
	c1.5-0.4,2.9-1.2,4.3-1.9c1.3-0.4,2.8-0.6,3.7-1.8c0.5,0,0.7-0.4,0.9-0.7c1.7,0,3.1-0.7,4.2-1.9c0.3-0.2,0.7-0.3,1-0.5
	c1.1-0.7,2.4-0.8,3.3-1.6c0.6-0.6,1.3-1.2,1.9-1.8c0.9-0.6,1.9-1.2,2.8-1.7c0.6-0.5,1.2-0.9,1.8-1.4c0.5-0.1,1-0.3,1.3-0.8
	c0.2-0.2,0.3-0.3,0.5-0.4c0.1,0,0.2,0,0.2-0.1c0.2,0,0.5,0.1,0.5-0.3c0.2-0.1,0.3-0.2,0.5-0.3c0.4,0.1,0.6-0.2,0.8-0.5
	c0.4-0.2,0.7-0.5,1.1-0.6c0.8-0.1,1.1-0.8,1.3-1.5c1.7-0.1,2.7-1.4,3.8-2.4c0,0,0-0.2,0-0.2c0.6-0.7,1.2-1.2,2.1-1.4
	c1-0.6,1.4-1.6,1.9-2.5c0.8-0.5,1.5-1,1.2-2.1c0.6-0.3,1.1-0.6,1.7-0.8c0.5-0.2,0.5-0.5,0.2-0.8c0-0.3-0.1-0.5,0.2-0.7
	c0.9-0.4,1.7-1.1,2.1-2.1c0.1-0.2,0.2-0.3,0.3-0.5c2-1.3,2.7-3.5,3.9-5.4c0.4-0.1,0.6-0.4,0.8-0.8l0.2-0.1l0.6-0.7
	c0.5-0.4,0.3-0.9,0.2-1.3c1-0.6,1.8-1.2,1.6-2.5c0.6-0.6,1.4-1.1,1.9-1.7c0.3-0.4,1.1-0.5,0.9-1.2c0.2-0.2,0.4-0.5,0.5-0.7
	c0.4,0,0.8-0.1,0.9-0.6c0.1-0.3-0.2-0.2-0.4-0.3c0.2-0.1,0.3-0.2,0.5-0.3c0.8-1.1,2-1.9,2.3-3.3c0.1-0.2,0.2-0.3,0.3-0.5v-0.3
	c0,0,0-0.1,0.1-0.2c0.7-1.1,1.2-2.3,1.5-3.6l0.2-0.2l-0.2-0.1c-1-0.2,0.1-0.5,0-0.8c1.2-0.6,1.5-1.3,1-2.4l0-0.3
	c0.8-0.5,1.3-1.1,1.3-2.1c0.8-0.9,0.8-2.3,1.7-3.3c0.2-0.3,0.3-0.6,0-0.9c0-0.3,0.5-0.6,0.2-1c1-0.3,1.1-1.1,1.1-1.9
	c0-0.6,0.2-1,0.5-1.4c0.5-1.2,1.3-2.3,0.8-3.6c0.2-0.2,0.5-0.3,0.7-0.5h0.1c0,0.1,0,0.2,0.2,0.2c0.3-0.3,1.6,0.2,0.8-1
	c-0.1-0.2-0.3-0.2-0.5-0.3c0-1.1,0.2-2.1,0.9-3c0.4-0.4,0.3-0.7,0.1-1.1c0-0.3,0-0.7,0-1c1.3-0.4,2.7-0.6,2.8-2.4l0.2-0.2
	c-0.2,0-0.3,0-0.4-0.1l0-0.1c0,0,0-0.1,0.1-0.2c0.6-0.7-0.4-1.3-0.2-2.1c0.2-0.4,1-0.4,1-1.1c0.4-0.4,0.4-1.1,0.7-1.5
	c-0.1-0.1-0.2-0.2-0.3-0.3l0.3,0.3l0.2-0.1c0.2,0,0.2,0,0.2-0.2c0-0.3-0.2-0.3-0.4-0.3c0-0.2,0-0.4-0.3-0.5
	c-0.1,0.2-0.2,0.4-0.3,0.6c-0.1,0-0.3,0-0.4,0c0.1,0,0.3,0,0.4,0c0.1-0.2,0.2-0.4,0.3-0.6c0-0.1,0-0.2,0-0.2c0.2,0,0.5,0.1,0.5-0.3
	c0-0.3-0.3-0.2-0.5-0.3c0-0.4,0.1-0.7,0.3-1c0.5-0.4,0-1.1,0.5-1.6c0.2-0.2,0.5-0.2,0.2-0.6c0-0.2-0.1-0.2-0.3-0.2l-0.3-0.1
	c0.7-1,1.3-2,1.3-3.3l0-0.1c0.2,0,0.3-0.1,0.2-0.2c0-0.2,0-0.3,0-0.5c-0.1,0-0.1,0.1-0.1,0.1c0,0,0.1-0.1,0.1-0.1
	c0.6-0.7,0.8-1.4,0-2.1c0.2-0.1,0.3,0.3,0.5,0c0.1-0.2,0-0.3-0.2-0.4c0-0.2,0-0.3,0-0.4c0-0.1,0-0.2,0-0.2c0.8-2,1.7-4,0.8-6.3
	c0.1-0.3,0.6-0.5,0.3-1c0.4-0.5,0.2-1.1,0.4-1.6C245.4,120.6,244.8,119.7,244.6,118.7L244.6,118.7z"/>
</svg>
